<svg xmlns="http://www.w3.org/2000/svg" viewBox="0 0 325.46 104.83"><defs><style>.cls-1{fill:#fff;}</style></defs><title>logo</title><g id="Calque_1" data-name="Calque 1"><path class="cls-1" d="M61.55,148.12l14.64-22.91L76,125,53.49,138.77c-7.52,4.6-15,9.2-22.78,13.63l27.58-45.1-.16-.21L35.22,121.72l-.21-.19L66,83c2.74,20.18,14.18,31.51,34.34,34.36L61.74,148.31Z" transform="translate(-30.71 -47.57)"/><path class="cls-1" d="M101.78,115.34a33.89,33.89,0,1,1,34-33.89A33.94,33.94,0,0,1,101.78,115.34Zm27.79-33.89a27.7,27.7,0,1,0-27.75,27.73A27.81,27.81,0,0,0,129.57,81.45Z" transform="translate(-30.71 -47.57)"/><path class="cls-1" d="M127,74.61l.86,5.84c-15.94,2.11-24.84,11-27,27l-5.7-.82C95.39,91.18,108.35,75.59,127,74.61Z" transform="translate(-30.71 -47.57)"/><path class="cls-1" d="M102.86,55.47l5.81.88A33.73,33.73,0,0,1,76.72,88.27l-.88-5.82C91.85,80.39,100.67,71.41,102.86,55.47Z" transform="translate(-30.71 -47.57)"/><path class="cls-1" d="M104.22,107.44a24.6,24.6,0,0,1,23.63-23.67c-.47,2-.88,3.93-1.43,5.82-.09.31-.78.54-1.24.64a17.68,17.68,0,0,0-12.53,9.2,30,30,0,0,0-2.05,5.6c-.2.64-.34,1-1,1.2C107.82,106.58,106.09,107,104.22,107.44Z" transform="translate(-30.71 -47.57)"/><path class="cls-1" d="M99.42,55.64C99.4,67.58,88.68,79,75.89,79c.44-1.9.83-3.76,1.33-5.58.09-.31.65-.62,1-.7A18.58,18.58,0,0,0,93.19,57.88a2,2,0,0,1,1-1.19A9.16,9.16,0,0,1,96.55,56C97.46,55.85,98.4,55.77,99.42,55.64Z" transform="translate(-30.71 -47.57)"/><path class="cls-1" d="M183.46,90.45l-.59,3.42h-4.73l-2.53,14.35h-4.33l2.53-14.35H169.1l.61-3.42Z" transform="translate(-30.71 -47.57)"/><path class="cls-1" d="M189.35,93.87l-.63,3.69h5.8l-.58,3.27h-5.8l-.71,4H194l-.61,3.42H182.49l3.14-17.77h10.89l-.61,3.42Z" transform="translate(-30.71 -47.57)"/><path class="cls-1" d="M212.09,108.22h-4.33l-5.29-11-1.95,11h-4.33l3.14-17.77h4.33l5.29,11,2-11h4.33Z" transform="translate(-30.71 -47.57)"/><path class="cls-1" d="M231.13,108.22H226.8l-5.29-11-1.95,11h-4.33l3.14-17.77h4.33l5.29,11,1.95-11h4.33Z" transform="translate(-30.71 -47.57)"/><path class="cls-1" d="M241.74,90.45l-3.14,17.77h-4.33l3.14-17.77Z" transform="translate(-30.71 -47.57)"/><path class="cls-1" d="M244.1,107.15a4.09,4.09,0,0,1-1.81-3.56c0-.15,0-.38.05-.68h4.51a1.85,1.85,0,0,0,.46,1.51,2.1,2.1,0,0,0,1.62.56,2.46,2.46,0,0,0,1.55-.43,1.44,1.44,0,0,0,.57-1.22,1.54,1.54,0,0,0-.72-1.31,11.87,11.87,0,0,0-2.24-1.14,20.94,20.94,0,0,1-2.39-1.15,5.51,5.51,0,0,1-1.61-1.48,4,4,0,0,1-.68-2.36,5.1,5.1,0,0,1,.86-3,5.56,5.56,0,0,1,2.46-2,8.81,8.81,0,0,1,3.59-.69,8.59,8.59,0,0,1,3.24.57,4.85,4.85,0,0,1,2.2,1.65,4.17,4.17,0,0,1,.79,2.54,3.69,3.69,0,0,1,0,.56h-4.6a2.11,2.11,0,0,0,0-.3,1.46,1.46,0,0,0-.49-1.15,1.94,1.94,0,0,0-1.36-.45,2.31,2.31,0,0,0-1.48.45,1.43,1.43,0,0,0-.57,1.2,1.56,1.56,0,0,0,.71,1.28,14.26,14.26,0,0,0,2.2,1.2A24.31,24.31,0,0,1,253.4,99a5.45,5.45,0,0,1,1.63,1.55,4,4,0,0,1,.68,2.4,5,5,0,0,1-.83,2.81,5.51,5.51,0,0,1-2.41,1.93,8.87,8.87,0,0,1-3.67.7A8.15,8.15,0,0,1,244.1,107.15Z" transform="translate(-30.71 -47.57)"/><path class="cls-1" d="M290.93,90.45l-7.77,17.77h-5.24l-.79-11.67-5,11.67H266.9l-1.36-17.77h4.63l.28,12.94,5.44-12.94h4.79l.76,12.86,4.83-12.86Z" transform="translate(-30.71 -47.57)"/><path class="cls-1" d="M294.46,107.46a6.49,6.49,0,0,1-2.64-2.63,7.87,7.87,0,0,1-.94-3.9,11.4,11.4,0,0,1,1.34-5.56A9.59,9.59,0,0,1,296,91.56a10.74,10.74,0,0,1,5.43-1.37,8.32,8.32,0,0,1,4,.93A6.47,6.47,0,0,1,308,93.73a7.74,7.74,0,0,1,.94,3.86,11.54,11.54,0,0,1-1.34,5.58,9.65,9.65,0,0,1-3.75,3.85,10.79,10.79,0,0,1-5.47,1.38A8.05,8.05,0,0,1,294.46,107.46Zm7.56-3.92a5.77,5.77,0,0,0,2-2.32,7.26,7.26,0,0,0,.7-3.15,3.89,3.89,0,0,0-1-2.86,3.78,3.78,0,0,0-2.83-1,5.17,5.17,0,0,0-2.95.86,5.8,5.8,0,0,0-2,2.29,7.19,7.19,0,0,0-.69,3.15,4,4,0,0,0,1,2.88,3.8,3.8,0,0,0,2.86,1.05A5.14,5.14,0,0,0,302,103.54Z" transform="translate(-30.71 -47.57)"/><path class="cls-1" d="M324.47,91.7A4.09,4.09,0,0,1,325.92,95a6.13,6.13,0,0,1-.1,1.09,6.31,6.31,0,0,1-1.55,3.17,6.72,6.72,0,0,1-3.31,2l2.86,7h-4.89l-2.51-6.71h-1l-1.19,6.71h-4.33L313,90.45h7.26A6.25,6.25,0,0,1,324.47,91.7Zm-3,4a1.56,1.56,0,0,0-.52-1.25,2.29,2.29,0,0,0-1.53-.45H316.7l-.78,4.46h2.68a2.92,2.92,0,0,0,1.89-.58,2.79,2.79,0,0,0,.9-1.65C321.42,96,321.44,95.77,321.44,95.69Z" transform="translate(-30.71 -47.57)"/><path class="cls-1" d="M331.29,104.93H337l-.59,3.29h-10l3.14-17.77h4.33Z" transform="translate(-30.71 -47.57)"/><path class="cls-1" d="M352.49,91.32a6.29,6.29,0,0,1,2.73,2.46,7,7,0,0,1,.95,3.71,13,13,0,0,1-.17,1.84,10.78,10.78,0,0,1-2,4.64,10.16,10.16,0,0,1-3.82,3.14,11.65,11.65,0,0,1-5.1,1.11h-6.66l3.14-17.77h6.66A9.61,9.61,0,0,1,352.49,91.32Zm-2.93,11.84a6.11,6.11,0,0,0,2-3.83,8.4,8.4,0,0,0,.13-1.26,3.69,3.69,0,0,0-1.14-2.9,4.7,4.7,0,0,0-3.24-1h-2.08l-1.82,10.39h2.05A6.09,6.09,0,0,0,349.56,103.16Z" transform="translate(-30.71 -47.57)"/></g></svg>